<?xml version="1.0" standalone="no"?><!DOCTYPE svg PUBLIC "-//W3C//DTD SVG 1.1//EN" "http://www.w3.org/Graphics/SVG/1.1/DTD/svg11.dtd"><svg t="1619336603762" class="icon" viewBox="0 0 1024 1024" version="1.1" xmlns="http://www.w3.org/2000/svg" p-id="6231" xmlns:xlink="http://www.w3.org/1999/xlink" width="200" height="200"><defs><style type="text/css"></style></defs><path d="M117.3 901.1C59.1 901.1 12 854 12 795.8V228.2c0-58.3 47.1-105.3 105.3-105.3h789.4c58.3 0 105.3 47.1 105.3 105.3v567.6c0 58.3-47.1 105.3-105.3 105.3H117.3zM74.7 795.8c0 23.2 19.4 42.6 42.6 42.6h789.4c23.2 0 42.6-19.4 42.6-42.6V205.1L573.6 527.7c-14.9 12.7-33.6 19.4-52.3 19.4-17.2 0-33.6-5.2-47.8-15.7l-3.7-3L74.7 205.1v590.7z m446.6-306.2l354-304H150.2l371.1 304z" p-id="6232" fill="#515151"></path></svg>